<svg width="40" height="40" fill="none" xmlns="http://www.w3.org/2000/svg"><g clip-path="url(#clip0_133_13)" fill="#fff"><path d="M18.125 40h-15a.625.625 0 01-.625-.584l-1.25-20a.624.624 0 01.625-.666h17.5a.625.625 0 01.625.666l-1.25 20a.625.625 0 01-.625.584zM3.712 38.75h13.826L18.709 20H2.541l1.171 18.75z"/><path d="M20.625 20h-20a.625.625 0 110-1.25h20a.624.624 0 110 1.25zm-1.875 6.122a6.358 6.358 0 01-3.012-.681 5.168 5.168 0 00-2.5-.57 5.15 5.15 0 00-2.5.57 6.397 6.397 0 01-3.013.68 6.397 6.397 0 01-3.013-.68 5.168 5.168 0 00-2.5-.57.625.625 0 110-1.25 6.396 6.396 0 013.013.682 5.112 5.112 0 002.5.569 5.131 5.131 0 002.5-.569 6.396 6.396 0 013.013-.681 6.396 6.396 0 013.012.681 5.13 5.13 0 002.5.569.625.625 0 010 1.25zm10.625-3.309h-3.75a.624.624 0 01-.625-.625V2.5a2.5 2.5 0 015 0v19.688a.624.624 0 01-.625.625zm-3.125-1.25h2.5V2.5a1.25 1.25 0 00-2.5 0v19.063z"/><path d="M24.688 29.063a.624.624 0 01-.625-.625v-6.25a.624.624 0 01.625-.625h5.625a.624.624 0 01.625.625v3.437a.624.624 0 11-1.25 0v-2.813h-4.375v5.625a.624.624 0 01-.625.625zm13.631 9.009h-.047c-.184 0-4.535-.344-7.01-.963-2.609-.653-5.115-3.437-5.221-3.565a.626.626 0 11.937-.831c.025.028 2.356 2.625 4.59 3.184 2.373.59 6.757.937 6.8.937a.626.626 0 01-.046 1.25l-.003-.012z"/><path d="M35.706 33.437a.624.624 0 01-.312-.09c-4.572-2.813-10.997-3.278-11.063-3.281a.625.625 0 01-.581-.66.623.623 0 01.669-.578c.275.019 6.8.503 11.628 3.463a.625.625 0 01-.313 1.156l-.028-.01z"/><path d="M37.647 35.919a.626.626 0 01-.519-.275c-.034-.053-3.56-5.232-7.153-6.525a28.039 28.039 0 00-4.316-1.032.63.63 0 11.188-1.25c1.545.242 3.067.608 4.553 1.094 3.975 1.444 7.613 6.788 7.766 7.013a.625.625 0 01-.52.975z"/><path d="M33.984 40c-3.125 0-6.7-.606-8.99-2.897a6.915 6.915 0 010-9.775 6.922 6.922 0 019.775 0c1.975 1.975 2.665 4.656 3.278 7.022.053.203.103.41.156.61l1.563 1.25a.625.625 0 01.234.468 1.328 1.328 0 01-.816 1.2c.113.235.24.463.382.681a.626.626 0 01-.413.938c-1.704.32-3.434.488-5.169.503zm-8.106-11.794a5.663 5.663 0 000 8.006c3.084 3.085 9.028 2.691 12.188 2.21a6.008 6.008 0 01-.313-.747.625.625 0 01.538-.85 1.57 1.57 0 00.225-.034l-1.25-.991a.625.625 0 01-.213-.313l-.215-.818c-.597-2.319-1.216-4.716-2.95-6.45a5.662 5.662 0 00-8.007 0l-.003-.013z"/><path d="M37.653 35.938h-.056a26.526 26.526 0 01-4.119-.704c-1.666-.49-2.447-1.206-2.528-1.287a.625.625 0 11.866-.9 5.388 5.388 0 002.015.987c1.275.316 2.571.534 3.878.654a.626.626 0 01-.056 1.25z"/></g><defs><clipPath id="clip0_133_13"><path fill="#fff" d="M0 0h40v40H0z"/></clipPath></defs></svg>