<svg width="40" height="40" fill="none" xmlns="http://www.w3.org/2000/svg"><path d="M38.75 35.625a.625.625 0 00.625-.625v-2.5a.625.625 0 00-.625-.625h-1.875v-1.25h.625a.625.625 0 00.625-.625v-5a.625.625 0 00-.625-.625h-5.625v-5h1.875a.624.624 0 00.444-.181l.625-.625a1.875 1.875 0 10-.882-.881l-.443.443h-1.619v-2.506h.625a.625.625 0 00.625-.425l1.25-3.75a.625.625 0 00-.087-.563l-2.5-3.125a.625.625 0 00-.976 0l-2.5 3.125a.624.624 0 00-.087.563l1.25 3.75a.624.624 0 00.525.425h.625v2.5h-1.619l-.444-.444a1.875 1.875 0 10-.88.881l.624.625a.624.624 0 00.444.188h1.875v5h-6.8a11.007 11.007 0 001.175-5c0-5.512-3.925-10-8.75-10a8.125 8.125 0 00-5.875 2.606L8.125 1.125a.625.625 0 00-1.25 0l-6.25 30a.625.625 0 00.625.75h5.625v6.25H.625v1.25h38.75v-1.25h-1.25v-2.5h.625zM35.625 16.25a.626.626 0 110 1.251.626.626 0 010-1.251zM31.25 9.125l1.2 1.5h-2.4l1.2-1.5zm-1.631 2.75h3.262l-.831 2.5h-1.6l-.831-2.5zm-3.369 5a.625.625 0 111.249 0 .625.625 0 01-1.249 0zm11.875 17.5h-18.75v-1.25h18.75v1.25zm-21.25-5a7.945 7.945 0 002.5-.625V30a.625.625 0 00.625.625h.625v1.25H18.75a.625.625 0 00-.625.625V35a.625.625 0 00.625.625h.625v2.5h-2.5v-8.75zm15 2.5v-1.25h1.25v1.25h-1.25zm-1.25 0h-6.25v-1.25h6.25v1.25zm-7.5 0h-1.25v-1.25h1.25v1.25zm-2.5 3.75h1.25v2.5h-1.25v-2.5zm2.5 0h7.5v2.5h-7.5v-2.5zm8.75 0h2.5v2.5h-2.5v-2.5zm3.75-3.75h-1.25v-1.25h1.25v1.25zm1.25-2.5h-16.25v-3.75h16.25v3.75zM16.25 10.625c4.137 0 7.5 3.925 7.5 8.75a9.625 9.625 0 01-1.356 5H20a.625.625 0 00-.625.625v2.319a6.708 6.708 0 01-2.5.762v-5.95l2.319-2.312-.888-.888-1.431 1.438v-2.244h-1.25v5.369l-.806-.813-.888.888 1.694 1.687v2.831a6.585 6.585 0 01-2.006-.53l-2.925-14.038a7.05 7.05 0 015.556-2.894zm-14.231 20L7.5 4.312l5.481 26.313H8.125v-7.244l1.694-1.687-.888-.888-.806.813V18.75h-1.25v6.619L5.444 23.93l-.888.888 2.319 2.312v3.494H2.019zm6.106 1.25h5.625a.626.626 0 00.608-.477.626.626 0 00.005-.273l-.444-2.119a7.566 7.566 0 001.706.331v8.788h-7.5v-6.25zm28.75 6.25h-1.25v-2.5h1.25v2.5z" fill="#fff"/></svg>