<svg width="40" height="40" fill="none" xmlns="http://www.w3.org/2000/svg"><path d="M2.184 12.584a.47.47 0 00-.32-.616.484.484 0 00-.571.314c-.07.192-.124.39-.164.59a3.37 3.37 0 00.711 2.803 3.412 3.412 0 002.07 1.202c-.196.877-.137 2.155.968 3.093.64.538 1.446.835 2.281.843a4.405 4.405 0 002.065-.488c.554.576 1.929 1.7 4.22 1.7a7.984 7.984 0 001.795-.215c.156.096.315.192.484.286a3.634 3.634 0 011.793 2.619c.213 1.398.34 3.71-.256 6.778-.012.054-1.209 5.405-4.668 7.11a.471.471 0 00-.217.624.485.485 0 00.442.269h2.447a.484.484 0 00.49-.425.472.472 0 00-.47-.517h-.92c2.809-2.358 3.771-6.655 3.818-6.871.625-3.21.49-5.638.266-7.11a4.583 4.583 0 00-2.265-3.299c-2.965-1.656-3.603-3.65-3.701-4.785a6.1 6.1 0 001.697.416c.939 2.868 3.76 3.387 3.885 3.408a.469.469 0 00.55-.464c0-1.675-.073-3.46-.132-4.638 1.168.157 3.805.34 5.818-.795.3.724.86 1.311 1.569 1.645-.528.92-1.489 2.107-3.064 2.491a41.062 41.062 0 01-.092-2.28.47.47 0 00-.47-.468h-.006a.464.464 0 00-.465.47c.017 1.549.13 2.823.135 2.877a.47.47 0 00.527.425c2.36-.297 3.687-2.002 4.34-3.201a5.692 5.692 0 001.134.134c-.012.051-.023.102-.037.153a4.032 4.032 0 01-1.504 2.177 16.53 16.53 0 00-1.876 1.63c-1.244 1.281-1.788 2.585-1.767 4.23.076 5.907 1.794 9.585 3.22 11.63a12.233 12.233 0 001.972 2.225h-.45a.484.484 0 00-.489.425.47.47 0 00.468.517h1.893a.487.487 0 00.441-.263.471.471 0 00-.203-.625c-.014-.007-1.457-.784-2.897-2.871-1.335-1.934-2.941-5.421-3.014-11.051-.018-1.375.445-2.474 1.501-3.562a15.515 15.515 0 011.762-1.53 4.977 4.977 0 001.852-2.689c.042-.157.075-.316.102-.477a3.829 3.829 0 002.78-2.238c.844.233 2.72.618 4.516.08a.47.47 0 00-.27-.901c-2.058.616-4.356-.196-4.379-.204l-.003-.001-.003-.001a4.767 4.767 0 01-2.036-1.419.47.47 0 00-.752.566 5.654 5.654 0 002.033 1.56c-.294.63-1.101 1.804-3.011 1.693-1.989-.116-2.524-1.212-2.665-1.697.523-.452 1.634-1.651 1.236-3.404a.47.47 0 00-.918.209c.36 1.582-1.04 2.575-1.101 2.617l-.006.005-.01.006c-2.195 1.64-5.959.943-6.203.896-2.384-.635-2.639-2.153-2.65-2.23a.47.47 0 10-.933.12c.01.086.284 2.059 3.022 2.925.053 1.019.124 2.626.14 4.213-.706-.26-1.902-.9-2.49-2.33a4.43 4.43 0 00.721-.146.484.484 0 00.348-.55.472.472 0 00-.595-.358c-1.69.504-3.38-.486-3.396-.496l-.007-.003a.482.482 0 00-.06-.028c-.01-.004-.018-.009-.028-.012a.472.472 0 00-.06-.014c-.01-.002-.023-.006-.036-.007h-.003a.464.464 0 00-.19.02h-.002c-3.206 1.026-4.304-.897-4.348-.976a.47.47 0 00-.37-.248c-1.307-.13-2.237-.585-2.765-1.353-.871-1.27-.402-3.027-.397-3.043a.47.47 0 00.001-.248c-.463-1.742.103-2.59.613-2.987a3.2 3.2 0 00.802 1.849.47.47 0 00.703-.002.49.49 0 00-.018-.645 2.32 2.32 0 01-.539-1.854C6.42 3.175 8.568 3.486 8.657 3.5a.47.47 0 00.519-.295c.207-.54 1.003-.83 1.291-.895a.503.503 0 00.035-.01c1.118-.34 1.991.344 2.026.372a.471.471 0 00.598-.002c1.722-1.424 4.263-1.219 5.762-.925a9.003 9.003 0 01-1.604.415.484.484 0 00-.412.486.47.47 0 00.546.445c1.751-.283 2.851-.917 3.075-1.056 3.34-1.415 5.942.154 6.05.221a.47.47 0 00.45.028c1.873-.876 3.24-.068 3.294-.035a.47.47 0 00.233.071c1.512.056 2.581.438 3.176 1.135.354.411.534.945.5 1.486-.014.068-.202.815-1.495.78a.468.468 0 00-.481.505.487.487 0 00.485.437h.07c1.241 0 1.893-.578 2.179-1.099.843.235 1.461.65 1.84 1.238.681 1.054.393 2.352.39 2.363a.47.47 0 00.084.394c.269.35.454.756.539 1.188.091.481.013.98-.222 1.409a.73.73 0 00-.013.609c.259.502.603 1.4.31 2.255-.23.675-.83 1.23-1.78 1.65a.47.47 0 00-.262.297c-.03.101-.762 2.462-4.048 1.716a.47.47 0 00-.47.163c-.016.02-1.667 2.011-4.195 1.55a.47.47 0 00-.553.42.487.487 0 00.41.51c.303.054.61.082.918.082 2.042 0 3.453-1.234 3.953-1.75 3.3.623 4.504-1.508 4.806-2.21 1.099-.523 1.809-1.236 2.112-2.122.376-1.1.024-2.187-.294-2.851a3.05 3.05 0 00.252-1.906 3.746 3.746 0 00-.59-1.407c.074-.5.163-1.75-.549-2.86-.52-.812-1.345-1.37-2.457-1.664a3.059 3.059 0 00-.706-1.774c-.755-.9-2.02-1.397-3.761-1.48-.424-.22-1.92-.856-3.85-.052a7.874 7.874 0 00-6.56-.219c-.88-.274-4.762-1.321-7.453.617a3.238 3.238 0 00-2.562-.334c-.169.04-1.26.33-1.784 1.151-.814-.013-2.808.238-3.733 2.756A2.974 2.974 0 003.31 6.53c-.47.804-.557 1.821-.26 3.024-.11.493-.417 2.27.556 3.694.66.964 1.745 1.548 3.231 1.738.353.477 1.362 1.553 3.297 1.553.47-.004.939-.06 1.396-.17.052 1.084.496 2.954 2.621 4.673-2.996.325-4.384-1.51-4.447-1.594a.47.47 0 00-.638-.12 3.31 3.31 0 01-1.897.544 2.649 2.649 0 01-1.682-.62c-1.214-1.03-.546-2.537-.518-2.6a.47.47 0 00-.435-.669H4.48a2.472 2.472 0 01-1.914-.906 2.431 2.431 0 01-.514-2.023c.032-.16.076-.317.132-.47z" fill="#fff"/><path d="M22.922 39.025a.47.47 0 00.47.47h1.866a.44.44 0 00.089-.008l.031-.009a.43.43 0 00.166-.082c.009-.006.018-.011.026-.019l.01-.01a.506.506 0 00.034-.037l.027-.033a.456.456 0 00.023-.04.311.311 0 00.022-.04c.006-.013.01-.027.015-.041l.014-.045.006-.042a.475.475 0 00.006-.05v-.014l-.002-.028a.507.507 0 00-.029-.138.43.43 0 00-.04-.082.485.485 0 00-.03-.041c-.006-.008-.01-.016-.017-.023-2.333-2.63-2.94-7.85-2.947-7.903a.47.47 0 00-.936.105c.024.206.545 4.69 2.57 7.64h-.904a.47.47 0 00-.47.47zm-6.079-.392h-.001a.47.47 0 00-.072.06c-.01.01-.016.02-.025.03a.467.467 0 00-.033.04.47.47 0 00-.02.04.255.255 0 00-.037.087c-.004.014-.01.027-.013.042a.475.475 0 00-.01.092v.001c0 .008.003.015.003.023 0 .023.003.046.007.068.003.015.009.03.013.044a.313.313 0 00.046.106l.01.02h.002l.004.007a.468.468 0 00.122.121l.006.003a.448.448 0 00.066.036l.016.007c.024.01.049.018.075.023l.017.004a.474.474 0 00.084.008h3.351a.44.44 0 00.089-.009l.03-.008a.48.48 0 00.054-.017c.012-.004.023-.01.034-.016a.476.476 0 00.044-.023l.034-.025c.008-.006.017-.011.025-.018l.023-.021c1.272-1.146 1.063-3.464 1.053-3.563a.47.47 0 00-.937.09c.049.516.018 1.942-.643 2.67h-1.867c2.398-2.5 2.358-6.534 2.355-6.718V25.52a.47.47 0 10-.94 0v6.325c0 .047.05 4.785-2.965 6.787zM15.38 2.286a.47.47 0 100 .94h.002a.47.47 0 10.003-.94h-.005zm4.898 21.071a.47.47 0 00.47-.47v-.188a.47.47 0 10-.94 0v.188a.47.47 0 00.47.47z" fill="#fff"/></svg>