<svg width="40" height="40" fill="none" xmlns="http://www.w3.org/2000/svg"><g clip-path="url(#clip0_2_269)" fill="#fff"><path d="M38.456 9.077L24.027.934c-1.963-1.109-5.338-1.11-7.306 0L2.292 9.077c-1.103.624-1.71 1.497-1.71 2.46 0 .962.608 1.834 1.71 2.457l14.429 8.145c.982.555 2.28.86 3.652.86 1.374 0 2.672-.306 3.654-.86l14.429-8.145c1.104-.623 1.711-1.495 1.711-2.458 0-.962-.608-1.835-1.711-2.459zm-.658 3.754L23.37 20.976c-1.548.874-4.445.875-5.993 0L2.95 12.831c-.655-.37-1.03-.842-1.03-1.295 0-.454.375-.925 1.03-1.296l14.428-8.145c.774-.438 1.867-.688 2.995-.688 1.13 0 2.223.252 2.997.688l14.428 8.145c.655.37 1.032.842 1.032 1.296 0 .453-.374.925-1.03 1.295z"/><path d="M38.456 17.624a.67.67 0 00-.657 1.163c.655.37 1.031.843 1.031 1.295 0 .453-.376.925-1.031 1.295L23.37 29.522c-1.623.917-4.367.918-5.992 0l-14.43-8.145c-.654-.37-1.03-.842-1.03-1.295 0-.452.376-.925 1.03-1.295a.666.666 0 00.084-1.108.668.668 0 00-.74-.055c-1.104.622-1.71 1.496-1.71 2.458 0 .963.606 1.837 1.71 2.46l14.428 8.144c1.024.578 2.339.868 3.652.868 1.316 0 2.63-.29 3.654-.868l14.429-8.145c1.104-.622 1.711-1.496 1.711-2.459 0-.962-.607-1.836-1.71-2.458z"/><path d="M38.456 26.005a.67.67 0 00-.657 1.164c.655.37 1.031.842 1.031 1.295 0 .452-.376.925-1.031 1.296L23.37 37.905c-1.623.916-4.367.918-5.992 0L2.948 29.76c-.654-.37-1.03-.843-1.03-1.296 0-.453.376-.925 1.03-1.295a.67.67 0 00-.657-1.164C1.19 26.628.583 27.5.583 28.464s.606 1.836 1.71 2.459l14.428 8.145c1.024.577 2.339.867 3.653.867 1.315 0 2.63-.289 3.654-.867l14.428-8.145c1.104-.624 1.711-1.497 1.711-2.46 0-.962-.608-1.835-1.71-2.458z"/></g><defs><clipPath id="clip0_2_269"><path fill="#fff" d="M0 0h40v40H0z"/></clipPath></defs></svg>