<svg width="40" height="40" fill="none" xmlns="http://www.w3.org/2000/svg"><path d="M20 0C8.954 0 0 8.954 0 20s8.954 20 20 20 20-8.954 20-20S31.046 0 20 0zm0 27.896A7.895 7.895 0 0112.104 20 7.893 7.893 0 0120 12.104 7.893 7.893 0 0127.896 20 7.895 7.895 0 0120 27.896z" fill="url(#paint0_linear_117_4)"/><path d="M20 0C8.954 0 0 8.954 0 20s8.954 20 20 20 20-8.954 20-20S31.046 0 20 0zm0 27.896A7.895 7.895 0 0112.104 20 7.893 7.893 0 0120 12.104 7.893 7.893 0 0127.896 20 7.895 7.895 0 0120 27.896z" fill="url(#paint1_linear_117_4)"/><path d="M19.278 5.726c-.008 1.344.456 2.73 1.139 4.722.232.672.351 1.232.405 1.703a7.872 7.872 0 014.695 2.208c.946-.332 1.066-1.042 1.24-2.25.227-1.603-.363-3.198-2.193-6.005-1.83-2.81-5.278-1.726-5.286-.378z" fill="url(#paint2_linear_117_4)"/><path d="M40 20c0 11.046-8.954 20-20 20S0 31.046 0 20c0-.124 0-.247.004-.367.1 4.865 4.776 8.788 10.525 8.788 2.03 0 3.927-.595 5.533-1.58 2.996-1.837 4.988-5.03 4.988-8.247 0-2.212.757-4.25 2.035-5.864a9.444 9.444 0 017.44-3.61c4.182 0 7.73 2.71 8.985 6.47A20.283 20.283 0 0140 20z" fill="url(#paint3_linear_117_4)"/><path opacity=".6" d="M10.529 28.42c-5.75 0-10.425-3.918-10.525-8.787C0 19.753 0 19.876 0 20c0 1.41.147 2.784.425 4.108 1.749 2.884 5.282 4.853 9.363 4.853 2.03 0 3.926-.594 5.532-1.579.394-.243.773-.51 1.128-.795-.128.085-.255.17-.382.25a10.566 10.566 0 01-5.537 1.584zm29.452-9.273a20.38 20.38 0 00-.471-3.556c-1.255-3.76-4.803-6.471-8.985-6.471a9.427 9.427 0 00-5.961 2.112 9.474 9.474 0 0114.2 4.904 20.264 20.264 0 01.49 4.408c0 6.471-3.076 12.22-7.84 15.877C36.601 32.807 40 26.803 40 20c0-.29-.008-.572-.02-.853z" fill="url(#paint4_linear_117_4)"/><path d="M39.514 15.595a9.473 9.473 0 00-8.985-6.471 9.444 9.444 0 00-7.44 3.61s-.494-2.105-2.398-4.074A4.736 4.736 0 0125.185.68l.19.054C32.417 2.69 37.9 8.409 39.514 15.594z" fill="url(#paint5_linear_117_4)"/><path d="M39.514 15.595a9.473 9.473 0 00-8.985-6.471 9.444 9.444 0 00-7.44 3.61s-.494-2.105-2.398-4.074A4.736 4.736 0 0125.185.68l.19.054C32.417 2.69 37.9 8.409 39.514 15.594z" fill="url(#paint6_linear_117_4)"/><path opacity=".6" d="M25.375.734l-.19-.054a4.731 4.731 0 00-5.907 4.135 4.734 4.734 0 014.471-3.738 4.93 4.93 0 011.197.116l.19.046a20.033 20.033 0 0112.308 8.981A20.02 20.02 0 0025.374.734z" fill="url(#paint7_linear_117_4)"/><defs><linearGradient id="paint0_linear_117_4" x1="12.105" y1="30.579" x2="25.687" y2="12.379" gradientUnits="userSpaceOnUse"><stop stop-color="#CA3F78"/><stop offset="1" stop-color="#7A0B4F"/></linearGradient><linearGradient id="paint1_linear_117_4" x1="12.105" y1="30.579" x2="25.687" y2="12.379" gradientUnits="userSpaceOnUse"><stop stop-color="#CA3F78"/><stop offset="1" stop-color="#7A0B4F"/></linearGradient><linearGradient id="paint2_linear_117_4" x1="23.531" y1="12.766" x2="22.829" y2="6.881" gradientUnits="userSpaceOnUse"><stop stop-color="#CA3F78" stop-opacity="0"/><stop offset="1" stop-color="#7A0B4F"/></linearGradient><linearGradient id="paint3_linear_117_4" x1="30.215" y1="8.924" x2="10.384" y2="36.36" gradientUnits="userSpaceOnUse"><stop stop-color="#FFC600"/><stop offset="1" stop-color="#ED6D02"/></linearGradient><linearGradient id="paint4_linear_117_4" x1="30.343" y1="8.743" x2="12.932" y2="32.833" gradientUnits="userSpaceOnUse"><stop stop-color="#FBCC02"/><stop offset="1" stop-color="#FFC600"/></linearGradient><linearGradient id="paint5_linear_117_4" x1="21.734" y1="1.352" x2="30.834" y2="11.81" gradientUnits="userSpaceOnUse"><stop stop-color="#FBCC02"/><stop offset="1" stop-color="#ED6D02"/></linearGradient><linearGradient id="paint6_linear_117_4" x1="21.734" y1="1.352" x2="30.834" y2="11.81" gradientUnits="userSpaceOnUse"><stop stop-color="#FBCC02"/><stop offset="1" stop-color="#ED6D02"/></linearGradient><linearGradient id="paint7_linear_117_4" x1="22.563" y1=".536" x2="29.496" y2="8.504" gradientUnits="userSpaceOnUse"><stop stop-color="#FB0202"/><stop offset="1" stop-color="#FFC600"/></linearGradient></defs></svg>