<svg width="25" height="25" fill="none" xmlns="http://www.w3.org/2000/svg"><path d="M12.5 23.438a10.937 10.937 0 110-21.875 10.937 10.937 0 010 21.875zm0 1.562a12.5 12.5 0 100-25 12.5 12.5 0 000 25z" fill="#fff" fill-opacity=".5"/><path d="M8.211 9.04a.37.37 0 00.377.387h1.289c.215 0 .387-.177.415-.391.14-1.025.844-1.772 2.097-1.772 1.072 0 2.053.536 2.053 1.825 0 .992-.584 1.448-1.508 2.142-1.051.764-1.884 1.656-1.825 3.105l.005.339a.39.39 0 00.39.384h1.268a.39.39 0 00.39-.39v-.164c0-1.122.427-1.449 1.579-2.322.951-.724 1.943-1.527 1.943-3.213 0-2.36-1.993-3.501-4.176-3.501-1.98 0-4.149.922-4.297 3.572zm2.433 9.005c0 .833.664 1.449 1.578 1.449.952 0 1.606-.616 1.606-1.449 0-.862-.656-1.468-1.608-1.468-.912 0-1.576.606-1.576 1.468z" fill="#fff" fill-opacity=".5"/></svg>